<?xml version="1.0" encoding="utf-8"?>
<!-- Generator: Adobe Illustrator 21.0.0, SVG Export Plug-In . SVG Version: 6.00 Build 0)  -->
<svg version="1.1" id="圖層_1" xmlns="http://www.w3.org/2000/svg" xmlns:xlink="http://www.w3.org/1999/xlink" x="0px" y="0px"
	 viewBox="0 0 1779.7 618.6" style="enable-background:new 0 0 1779.7 618.6;" xml:space="preserve">
<style type="text/css">
	.st0{fill:#DE431A;}
	.st1{fill:#17356E;}
</style>
<polygon class="st0" points="325.4,0 283.5,112.1 388.2,200.9 "/>
<polygon class="st0" points="0,212 639.6,225.5 497.9,322.9 240.3,267.4 509,599 "/>
<polygon class="st0" points="196,388.2 119.5,592.8 260,500.4 "/>
<path class="st0" d="M915.7,128.2h-228L610,497.9h162.7l8.6-65.3h54.2l7.4,65.3h163.9L915.7,128.2z M781.3,364.8L808.5,212
	l23.4,152.8H781.3z"/>
<path class="st0" d="M1677.3,128.2h-228l-77.6,369.7h162.7l8.6-65.3h54.2l7.4,65.3h163.9L1677.3,128.2z M1543,364.8l27.1-152.8
	l23.4,152.8H1543z"/>
<path class="st0" d="M1355.7,321.7c-29.6-16-65.3-23.4-65.3-23.4s77.6-2.5,78.9-53s-16-98.6-77.6-109.7s-274.8-7.4-274.8-7.4v369.7
	h223.1c0,0,134.3,9.9,138-57.9C1381.5,372.2,1385.2,337.7,1355.7,321.7z M1173.3,192.3c0,0,30.2-4.6,43.1,5.9
	c12.6,10.2,9,56.2,5.9,67.1c-3.5,12.2-49,7.8-49,7.8V192.3z M1222.1,421.5c-3.7,18.5-50.9,14.4-50.9,14.4l2.1-104.8c0,0,0,0,25.8,0
	c25.8,0,25.8,19.3,25.8,19.3S1225.8,403,1222.1,421.5z"/>
<g>
	<g>
		<path class="st1" d="M606.3,578.2c8.6-14.8,21.3-41.4,24.4-47.5c1-2.1,1.7-3.8,2-5.2c0.1,0,1.3,0.1,3.2,0.1c2.1,0,3.1-0.1,3.2-0.1
			c0.3,0.9,0.8,2.6,1.7,4.5c2.5,5.2,18.9,42.7,23.1,50.3c3.7,6.1,4.2,6.4,13.7,7.2c0.3,0.3,0.1,1.3-0.3,1.5
			c-3.5-0.1-11.6-0.3-14.8-0.3c-3.4,0-12.7,0.1-15.6,0.3c-0.1-0.2-0.3-1.3,0-1.5c2.8-0.3,5.1-0.5,7-1c2.3-0.7,2.3-1.4,1.7-2.9
			c-1.6-4.4-6.9-15.5-9.6-21.1c0,0-0.8-0.5-1-0.5c-1.4-0.1-4.4-0.1-13.1-0.1c-9.4,0-10.1,0-11.6,0.1c-0.4,0-1,0.4-1.1,0.7
			c-2.8,5.4-8.6,16.7-9.2,19.7c-0.4,1.9-0.6,3.5,4.1,4.3c1.7,0.3,3,0.5,5.9,0.8c0.3,0.2,0.1,1.3-0.1,1.5c-2.5,0-9.9-0.3-16.1-0.3
			c-6.9,0-11.1,0.3-13.2,0.3c-0.4-0.1-0.4-1.3,0-1.5C600.5,586.7,601.9,585.8,606.3,578.2z M633,533.7c-2.3,4.3-9.3,19.7-11.4,24.2
			c0,0.4,0.1,0.6,0.6,0.7c1.3,0.1,4.8,0.1,12.4,0.1c3.1,0,8.6,0,9.3-0.1c0.1,0,0.4-0.3,0.3-0.7c-3.4-7.8-8.5-19.8-10.6-24.3
			C633.5,533.6,633,533.6,633,533.7z"/>
		<path class="st1" d="M675.5,550.2c5.4,0,13.9-0.9,16.6-1.7c-0.3,1.5-0.7,3.1-0.7,20c0,3.5,0.1,8.2,0.8,10.3
			c1.1,3.4,4.2,6.7,12.3,6.7c5.8,0,9.2-1.5,12.3-3.4c1-0.5,1.8-1.9,2-3.2c0.1-2,0.1-18.7-0.3-23.3c-0.1-1-0.4-2.5-2.8-3
			c-1.8-0.4-5.2-0.6-9.3-0.8c-0.3-0.2-0.1-1.5,0.3-1.6c6.3,0,17.2-0.9,20.4-1.7c-0.4,2-0.6,6.1-0.6,10.7l0.1,20.7c0,5,1,5.4,4.4,5.4
			c2,0,2.5-0.1,4.1-0.3c0.1,0.2,0.3,1.5-0.1,1.8c-4.9,0.9-12.4,2.7-15.6,3.9c-0.3,0.1-0.8-0.3-0.8-0.8c0-1.3,0.1-4.2,0.1-5.9
			c0-0.2-0.4-0.6-0.8-0.3c-8.2,5.1-14.2,6.4-18.2,6.4c-13.9,0-16.1-7.2-16.1-14c0-4.8,0.1-15.4-0.1-19.9c-0.1-1.7-0.3-3-1.8-3.5
			c-1.1-0.4-3.9-0.7-6.5-0.9C674.9,551.5,675,550.3,675.5,550.2z"/>
		<path class="st1" d="M755,553.2c-0.4,0-0.7,0.4-0.7,0.6c-0.1,6.3-0.1,18,0,22.6c0.1,3.4,0.6,4.9,1,5.8c1.4,2.4,4.4,3.5,7.9,3.5
			c3.8,0,5.9-0.7,7.9-1.8c0.1,0.1-0.1,1.5-0.3,1.8c-3.1,2.9-7.9,4.2-12.1,4.2c-4.1,0-8.3-1-10.4-4.3c-1.6-2.4-1.7-5-1.7-11.6
			c0-5.7,0.1-16,0.1-20.1c0-0.3-0.1-0.5-0.6-0.6c-1-0.2-5.4-0.3-7.3-0.4c0-0.4,1-2.2,1.1-2.4c1.7-0.2,5.4-0.6,6.3-0.9
			c0.3-0.1,0.4-0.4,0.4-0.5v-7.9c1.7-0.7,6.1-3.9,6.9-5.1c0.4-0.1,1.4,0.1,1.5,0.2c-0.4,1.4-0.8,5.7-0.8,12.7c0,0.2,0.4,0.5,0.6,0.5
			c7.6,0.1,14.4-0.2,15.8-0.4c-0.4,1-1,3.1-1.1,4.2C765.2,553.4,759.4,553.2,755,553.2z"/>
		<path class="st1" d="M829,568c0,7.1-4.2,14.3-12.8,18.4c-3.5,1.8-9.3,3.7-14.9,3.7c-19.7,0-26.1-11.5-26.1-21.3
			c0-7.8,4.8-13.1,11.8-16.6c4.8-2.4,11.1-4,17.3-4C820.3,548.1,829,557,829,568z M791.5,552.6c-3.5,1.6-7.7,5.6-7.7,13.7
			c0,11.6,8.6,20.6,21.3,20.6c3,0,7-0.6,9.7-2.6c4.5-3.3,5.6-7.3,5.6-13.1c0-11.6-7.6-20.3-21.1-20.3
			C797,551,793.4,551.6,791.5,552.6z"/>
		<path class="st1" d="M841.7,586.8c2.4-0.5,2.7-2.5,2.8-4.6c0.3-5.8,0.4-15.7,0.4-23c0-0.6-0.1-2.7-1.3-3.7c-1.5-1.2-4.4-1.7-6.2-2
			c-0.1-0.3,0.3-1.3,0.6-1.4c4.9-0.2,11.3-2.4,14.4-3.9c0.1,0,0.4,0.2,0.4,0.3c0,0.7-0.1,4.8-0.1,6.4c0,0.2,0.4,0.4,0.6,0.3
			c7.6-4.4,14.5-7,18.9-7c6.6,0,11.7,3.1,14.1,7c0.1,0.3,0.8,0.2,1,0.1c7-4,14.4-7.1,20-7.1c10.6,0,15.6,5.9,15.9,15.7
			c0.1,5.5,0.1,15.9,0.1,20c0,1.1,0.1,2,1.1,2.5c1.5,0.8,3.4,1,7.5,1.3c0.1,0.2,0,1.3-0.4,1.5c-3,0-8-0.3-12.5-0.3
			c-6.6,0-9.9,0.2-12,0.3c-0.3-0.2-0.3-1.3,0-1.5c3.1-0.4,4.5-0.5,6.5-1.1c1.8-0.5,1.8-2.7,1.8-7.4c0-7,0.3-15.2-0.6-18
			c-1-4.2-4.4-8.4-13.5-8.4c-4.1,0-8.6,1.1-13.2,4.3c-0.3,0.1-0.4,0.7-0.4,0.9c0.4,1.9,0.6,3.9,0.6,7c0,5.5-0.1,15.3,0.3,19.4
			c0.1,1.4,1,2.2,2.1,2.5c1.7,0.4,3,0.5,6.1,0.8c0.3,0.3,0.1,1.3-0.3,1.5c-3.5,0-7-0.3-12.4-0.3c-4.6,0-9.6,0.3-11.7,0.3
			c-0.3-0.2-0.3-1.3,0-1.5c2.5-0.3,3.5-0.4,5.4-0.8c1.7-0.4,2.1-1.2,2.4-4.2c0.4-4.6,0.3-19.3-0.4-22.3c-0.8-2.8-3.8-7.6-12.7-7.6
			c-2.5,0-7.2,0.8-11,3c-1.6,0.9-3.1,2-3.1,3.4c0,6.5,0,19.6,0.1,24.4c0,1.4,0.3,2.8,2.5,3.3c1.4,0.3,3.2,0.5,5.9,0.8
			c0.3,0.2,0.1,1.4-0.3,1.5c-2.7,0-7.2-0.3-12-0.3c-6.8,0-9.7,0.3-12.8,0.3c-0.4-0.2-0.3-1.4,0-1.5
			C838.9,587.3,840.4,587.1,841.7,586.8z"/>
		<path class="st1" d="M963.1,555.8c-2.5-2.6-6.5-4-11.4-4c-2,0-3.2,0.3-4.4,0.8c-1.5,0.7-4.1,3.3-6.1,7.9c-0.3,0.3-2.7-0.9-2.7-2
			c0-1.3,1.8-4.2,2.5-4.7c5.5-3.3,13.5-5.8,17.2-5.8c5.1,0,9.2,1.8,12,4.9c2.3,2.6,2.8,6.7,2.8,10c0,5.7-0.4,13.8-0.4,17.5
			c0,2,1,4.6,5.2,4.6c2.7,0,3.5-0.2,5.1-0.6c0,0.4-0.3,1.8-0.6,2c-3.2,2.7-7.5,3.5-10,3.5c-3,0-4.7-0.6-6.1-2.3
			c-0.6-0.6-1-2.2-1.1-2.9c0-0.2-0.4-0.4-0.6-0.3c-5.9,2.7-13.1,5.5-16.1,5.5c-2.5,0-4.9-0.8-6.9-2.3c-2.7-2.1-4.5-5.1-4.5-8.5
			c0-0.7,0.7-3.8,1.4-4.8c3.9-1.8,22-5.4,26.3-7.1c0.3-0.1,0.7-0.7,0.7-0.8c0.1-1.3,0-3.2,0-4.7
			C965.7,559.8,964.7,557.4,963.1,555.8z M965.1,569.3c-7.2,1.8-17,4.2-18.9,5.6c-0.4,0.3-1,2.2-1,2.9c0,4.1,3.8,7.4,10,7.4
			c2.1,0,5.6-0.6,8.6-2c0.7-0.3,1.4-1.1,1.4-2.1c0.1-3.3,0.3-9.9,0.3-11.7C965.5,569.4,965.2,569.3,965.1,569.3z"/>
		<path class="st1" d="M1000.7,553.2c-0.4,0-0.7,0.4-0.7,0.6c-0.1,6.3-0.1,18,0,22.6c0.1,3.4,0.6,4.9,1,5.8c1.4,2.4,4.4,3.5,7.9,3.5
			c3.8,0,5.9-0.7,7.9-1.8c0.1,0.1-0.1,1.5-0.3,1.8c-3.1,2.9-7.9,4.2-12.1,4.2c-4.1,0-8.3-1-10.4-4.3c-1.6-2.4-1.7-5-1.7-11.6
			c0-5.7,0.1-16,0.1-20.1c0-0.3-0.1-0.5-0.6-0.6c-1-0.2-5.4-0.3-7.3-0.4c0-0.4,1-2.2,1.1-2.4c1.7-0.2,5.4-0.6,6.3-0.9
			c0.3-0.1,0.4-0.4,0.4-0.5v-7.9c1.7-0.7,6.1-3.9,6.9-5.1c0.4-0.1,1.4,0.1,1.6,0.2c-0.4,1.4-0.8,5.7-0.8,12.7c0,0.2,0.4,0.5,0.6,0.5
			c7.6,0.1,14.4-0.2,15.8-0.4c-0.4,1-1,3.1-1.1,4.2C1010.9,553.4,1005.1,553.2,1000.7,553.2z"/>
		<path class="st1" d="M1045.7,589.1c-2.7,0-8.5-0.3-12.4-0.3c-5.4,0-10.3,0.3-12.3,0.3c-0.3-0.2-0.3-1.3,0-1.5
			c2-0.2,4.2-0.4,5.8-0.9c1.6-0.5,2.3-1.1,2.5-4.2c0.3-2.6,0.3-11,0.3-16.9c0-4.1-0.1-7.4-0.1-9.2c0-0.6,0-1-0.7-1.9
			c-1.4-1.1-3.5-1.5-6.1-2c-0.3-0.2-0.1-1.3,0-1.5c4.4-0.3,10.1-1.1,14.9-2.9c-0.1,2.9-0.3,11-0.3,17.4c0,5.7,0,12.8,0.1,17.8
			c0,2,1,2.9,3,3.4c1.7,0.4,2.5,0.5,5.6,0.8C1046.1,587.8,1046,589,1045.7,589.1z M1035,537.1c-0.6,0.2-3.5,0.5-4.4,0.2
			c-1.6-0.5-2.7-1.9-2.7-3.5c0-0.7,0.1-1.4,0.7-2c0.8-0.7,3-1.4,4.6-1.4c1.6,0,3,0.6,3.2,0.8c0.8,0.5,1.1,1.5,1.1,2.1
			C1037.6,535.1,1036.4,536.6,1035,537.1z"/>
		<path class="st1" d="M1106.4,568c0,7.1-4.2,14.3-12.8,18.4c-3.5,1.8-9.3,3.7-14.9,3.7c-19.7,0-26.1-11.5-26.1-21.3
			c0-7.8,4.8-13.1,11.8-16.6c4.8-2.4,11.1-4,17.3-4C1097.7,548.1,1106.4,557,1106.4,568z M1068.9,552.6c-3.5,1.6-7.7,5.6-7.7,13.7
			c0,11.6,8.6,20.6,21.3,20.6c3,0,7-0.6,9.7-2.6c4.5-3.3,5.6-7.3,5.6-13.1c0-11.6-7.6-20.3-21.1-20.3
			C1074.4,551,1070.7,551.6,1068.9,552.6z"/>
		<path class="st1" d="M1119.2,586.8c2.1-0.6,2.5-2.4,2.7-4c0.4-3.8,0.3-10.4,0.3-17.3c0-5.9-0.3-8.7-0.4-9.3
			c-0.3-1.4-1.3-1.8-6.8-2.9c-0.1-0.2,0-1.2,0.4-1.3c4.6-0.5,11.3-2.3,14.7-3.8c0.1,0,0.4,0.2,0.4,0.4c-0.3,2.2-0.4,4.3-0.6,6.1
			c0,0.3,0.3,0.6,0.6,0.4c9.2-5.3,15.6-6.9,19.9-6.9c5.5,0,9.4,2,12.3,5.2c2.5,2.9,3.4,6.8,3.4,11.9c0,5.6,0.1,14.3,0.1,18.9
			c0,1.5,0.4,2.3,2.1,2.7c2,0.5,3.8,0.7,6.1,0.9c0.3,0.2,0.1,1.3-0.3,1.5c-2,0-5.4-0.3-11.8-0.3c-6.5,0-10.7,0.2-13.1,0.3
			c-0.3-0.2-0.3-1.3,0-1.5c2.7-0.2,5.1-0.5,5.9-0.7c2.3-0.5,2.8-1.7,3-3c0.3-4.7,0.3-18.1-0.3-21.6c-0.3-1.6-1.1-5.1-3.9-7
			c-2-1.5-4.6-2.7-9.4-2.7s-9.2,1.3-12.8,4c-1.1,0.8-1.5,1.8-1.5,4.4c0,8.1,0,16.7,0.3,21.2c0.1,2.9,0.7,3.7,2.3,4.2
			c1.3,0.4,4.2,0.7,6.5,0.9c0.1,0.2,0.1,1.3-0.1,1.7c-1.6,0-5.1-0.3-12.7-0.3c-7.7,0-10.1,0.3-12.1,0.3c-0.4-0.2-0.3-1.3,0-1.5
			C1116,587.4,1117.8,587.2,1119.2,586.8z"/>
	</g>
</g>
<g>
	<path class="st1" d="M1196.9,525.3c5.8,0.1,9.2,0.3,15.2,0.3c6.8,0,8.4-0.2,19.3-0.2c8,0,23.5,1.4,23.5,13.9c0,6-5.5,11-14.2,13.8
		c-0.1,0.1-0.1,0.2,0,0.3c11.2,2,20,7,20,16c0,8.3-6.5,14.5-17.3,17.7c-6.4,2-13.6,2.2-20,2.2s-18.3-0.5-27.4-0.2
		c-0.4-0.2-0.4-1.4,0-1.5c2.7-0.2,5.8-0.3,8.4-0.8c2.8-0.5,3.7-1.8,4-5.9c0.3-3.4,0.4-10,0.4-24c0-16,0-21.1-0.3-24.7
		c-0.3-2.8-1.3-3.8-3.4-4.3c-2-0.5-5.8-0.8-8.1-0.9C1196.5,526.7,1196.5,525.4,1196.9,525.3z M1218.8,528.1
		c-0.7,0.2-1.1,1.1-1.1,1.8c-0.1,1.3-0.4,14.5-0.4,22.6c0,0.2,0.3,0.6,0.6,0.6c1.1,0.1,2.7,0.2,7.1,0.2c9.7,0,12.4-0.6,14.2-1.5
		c4.5-2.3,6.4-6.1,6.4-10.2c0-9.1-6.7-13.8-21.5-13.8C1221.5,527.7,1219.5,527.9,1218.8,528.1z M1251,571.9
		c0-11-10.8-16.5-26.7-16.5c-4.1,0-6,0.1-6.4,0.2c-0.3,0.1-0.6,0.2-0.6,0.4c0,6.4,0,22.5,0.6,26.4c0.1,1.1,1.1,2.1,2.3,2.7
		c2.6,1.2,8.1,1.6,11.1,1.6C1245.3,586.8,1251,581.7,1251,571.9z"/>
	<path class="st1" d="M1306.1,550.1c0.1,0.2,0.1,1,0,1.4c-0.3,1-2.6,3.7-3.8,4.6l-1,0.3c-2.1-1.5-5.3-2.4-7.5-2.4
		c-3.3,0-5.8,2.4-8,5.2c-0.7,1-1.4,3.1-1.4,4.8c0,6.1,0.1,17,0.4,19.3c0.1,1.9,0.9,2.9,2.7,3.3c2.7,0.6,5.1,0.8,7.7,0.9
		c0.3,0.3,0.1,1.3-0.3,1.5c-1.4,0-8.4-0.3-13.1-0.3c-3.7,0-10.9,0.2-13.2,0.3c-0.3-0.2-0.3-1.3,0-1.5c1.6-0.1,4-0.5,5.3-0.8
		c1.3-0.3,2.1-0.8,2.4-2.5c0.4-1.7,0.6-11,0.6-19c0-4.1,0-7.3-0.3-8.7c-0.1-0.9-0.7-2.8-7.3-3.8c0-0.2,0.1-1.1,0.4-1.2
		c3.4-0.2,11.1-2.1,14.2-3.5c0.1,0,0.6,0.2,0.6,0.3c-0.1,2-0.1,6.5-0.1,8.6c0,0.1,0.4,0.2,0.6,0.1c2.4-2.4,5.3-5.1,8.7-6.9
		c2.3-1.2,4.4-2.1,7-2.1C1302.8,548.1,1305.1,548.8,1306.1,550.1z"/>
	<path class="st1" d="M1334.6,589.1c-2.7,0-8.5-0.3-12.5-0.3c-5.4,0-10.4,0.3-12.4,0.3c-0.3-0.2-0.3-1.3,0-1.5
		c2-0.2,4.3-0.4,5.8-0.9c1.6-0.5,2.3-1.1,2.6-4.2c0.3-2.6,0.3-11,0.3-16.9c0-4.1-0.1-7.4-0.1-9.2c0-0.6,0-1-0.7-1.9
		c-1.4-1.1-3.6-1.5-6.1-2c-0.3-0.2-0.1-1.3,0-1.5c4.4-0.3,10.2-1.1,15.1-2.9c-0.1,2.9-0.3,11-0.3,17.4c0,5.7,0,12.8,0.1,17.8
		c0,2,1,2.9,3,3.4c1.7,0.4,2.6,0.5,5.7,0.8C1335,587.8,1334.8,589,1334.6,589.1z M1323.7,537.1c-0.6,0.2-3.6,0.5-4.4,0.2
		c-1.6-0.5-2.7-1.9-2.7-3.5c0-0.7,0.1-1.4,0.7-2c0.9-0.7,3-1.4,4.7-1.4c1.6,0,3,0.6,3.3,0.8c0.9,0.5,1.1,1.5,1.1,2.1
		C1326.4,535.1,1325.2,536.6,1323.7,537.1z"/>
	<path class="st1" d="M1344.1,586.8c2.1-0.6,2.6-2.4,2.7-4c0.4-3.8,0.3-10.4,0.3-17.3c0-5.9-0.3-8.7-0.4-9.3
		c-0.3-1.4-1.3-1.8-6.8-2.9c-0.1-0.2,0-1.2,0.4-1.3c4.7-0.5,11.4-2.3,14.8-3.8c0.1,0,0.4,0.2,0.4,0.4c-0.3,2.2-0.4,4.3-0.6,6.1
		c0,0.3,0.3,0.6,0.6,0.4c9.2-5.3,15.8-6.9,20-6.9c5.5,0,9.5,2,12.4,5.2c2.6,2.9,3.4,6.8,3.4,11.9c0,5.6,0.1,14.3,0.1,18.9
		c0,1.5,0.4,2.3,2.1,2.7c2,0.5,3.8,0.7,6.1,0.9c0.3,0.2,0.1,1.3-0.3,1.5c-2,0-5.4-0.3-11.9-0.3c-6.5,0-10.8,0.2-13.2,0.3
		c-0.3-0.2-0.3-1.3,0-1.5c2.7-0.2,5.1-0.5,6-0.7c2.3-0.5,2.8-1.7,3-3c0.3-4.7,0.3-18.2-0.3-21.6c-0.3-1.6-1.1-5.1-4-7
		c-2-1.5-4.7-2.7-9.5-2.7c-4.8,0-9.2,1.3-12.9,4c-1.1,0.8-1.6,1.8-1.6,4.4c0,8.1,0,16.7,0.3,21.2c0.1,2.9,0.7,3.7,2.3,4.2
		c1.3,0.4,4.3,0.7,6.5,0.9c0.1,0.2,0.1,1.3-0.1,1.7c-1.6,0-5.1-0.3-12.8-0.3c-7.8,0-10.2,0.3-12.2,0.3c-0.4-0.2-0.3-1.3,0-1.5
		C1340.8,587.4,1342.7,587.2,1344.1,586.8z"/>
	<path class="st1" d="M1439.9,549.7c2.3,0.6,5.8,1,8.4,1c5.5,0,6.7-0.6,8.4-1.9c0.1-0.1,1,0.2,1,0.4c0,0.8-1.8,4-3.6,4.9
		c-0.9,0.4-1.7,0.7-4.4,0.7c-0.9,0-1.1,0-3.6-0.1c-0.3,0-0.4,0.3-0.3,0.5c0.7,1.1,2,3.8,2,7.2c0,7-3.7,10.6-8.1,13.1
		c-6.3,3.6-11.8,4.2-15.1,4.5l-1.4,0.2c-1.7,0.2-4.8,1.2-4.8,3.2c0,2.2,3.4,3.1,5.3,3.3c4.8,0.5,18.5,0.9,23,2.1
		c5.1,1.2,10,4,10,9.9c0,6.9-6.7,13.1-16.1,16.8c-5.7,2.3-10.7,2.9-15.4,2.9c-6.3,0-11.4-1.2-15.4-3.5c-4.5-2.6-6.8-6.2-6.8-9.9
		c0-0.7,0.4-3,1-3.5c1.7-1.6,8.4-5.7,14.5-9.1c0,0,0-0.3-0.1-0.3c-5.8-1-9.4-4.4-9.4-6.5c0-0.3,0.1-0.7,0.3-1.1
		c2.1-0.8,7.1-3.1,9-4.1c0.3-0.2,0.1-0.5-0.1-0.6c-6.3-1.8-12.5-6.3-12.5-15.1c0-4.3,2.3-8.9,7.5-12.1c4.3-2.6,12.1-4.7,16.5-4.7
		C1433.1,548.1,1436.6,548.8,1439.9,549.7z M1449.7,602.9c0-4.8-4-7.2-7.8-8.3c-4.5-1.2-13.2-1.6-16.3-1.6c-1.8,0-3.7,0.3-5.3,1
		c-6.1,3-9.2,5.9-9.2,9.3c0,2.9,1.6,5.7,5.4,7.9c4.3,2.5,9,3.2,14.4,3.2C1445,614.4,1449.7,608.8,1449.7,602.9z M1413.3,562.7
		c0,6.5,5.1,14.3,15.8,14.3c2.4,0,5.3-0.5,7.3-2c2.8-2.1,4.1-5.3,4.1-9.8c0-6.1-3.8-14.3-16.1-14.3
		C1416.9,551,1413.3,556.4,1413.3,562.7z"/>
	<path class="st1" d="M1492.5,558.6c-0.1,0.3-2,0.4-2.3,0.1c-0.7-4.8-2-6.8-4.7-7.7c-2.1-0.7-4.1-0.9-6.4-0.9
		c-4.5,0-9.1,2.3-9.1,6.7c0,3.6,1.7,6,11.7,9.7c11.5,4.2,14.1,7.3,14.1,11.9c0,6.6-8.1,11.8-19.6,11.8c-4.1,0-9.7-0.7-13.2-1.9
		c-1.1-2.1-2.1-8.4-2.1-10.3c0.1-0.3,1.8-0.6,2.3-0.4c1.8,6,5.3,8.4,8.7,9.6c2,0.7,4.1,0.9,6.1,0.9c5.7,0,10.1-2.7,10.1-6.6
		c0-4.1-2.6-6.3-10.5-9.4c-11.5-4.4-14.5-7.9-14.5-12.9c0-5.8,6.5-11,18.6-11c3,0,5.5,0.3,7.7,0.5c1.6,0.2,4.1,0.4,4.8,0.4
		C1492.9,552.5,1492.8,554.9,1492.5,558.6z"/>
</g>
<g>
	<path class="st1" d="M1537.2,577.5c9.1-14.5,22.6-40.5,25.8-46.6c1-2,1.8-3.7,2.1-5c0.1,0,1.3,0.1,3.4,0.1c2.2,0,3.3-0.1,3.4-0.1
		c0.3,0.9,0.9,2.5,1.8,4.4c2.7,5,20,41.8,24.5,49.3c3.9,6,4.5,6.3,14.5,7.1c0.3,0.3,0.2,1.3-0.3,1.5c-3.7-0.1-12.2-0.3-15.7-0.3
		c-3.6,0-13.4,0.1-16.6,0.3c-0.1-0.2-0.3-1.3,0-1.5c3-0.3,5.4-0.5,7.5-1c2.4-0.7,2.4-1.4,1.8-2.8c-1.6-4.3-7.3-15.1-10.2-20.7
		c0,0-0.9-0.5-1-0.5c-1.5-0.1-4.6-0.1-13.9-0.1c-10,0-10.8,0-12.2,0.1c-0.4,0-1,0.4-1.2,0.7c-3,5.2-9.1,16.4-9.7,19.3
		c-0.5,1.8-0.6,3.4,4.3,4.2c1.8,0.3,3.1,0.5,6.3,0.8c0.3,0.2,0.1,1.3-0.1,1.5c-2.7,0-10.5-0.3-17-0.3c-7.3,0-11.8,0.3-14,0.3
		c-0.4-0.1-0.4-1.3,0-1.5C1531.1,585.8,1532.6,585,1537.2,577.5z M1565.6,533.9c-2.4,4.2-9.9,19.3-12.1,23.7c0,0.4,0.1,0.6,0.6,0.7
		c1.3,0.1,5.1,0.1,13.1,0.1c3.3,0,9.1,0,9.9-0.1c0.1,0,0.4-0.3,0.3-0.7c-3.6-7.7-9-19.4-11.2-23.8
		C1566.1,533.8,1565.6,533.8,1565.6,533.9z"/>
	<path class="st1" d="M1611.2,586.7c2.4-0.2,4.8-0.4,6.6-1c1.5-0.6,2.2-1.3,2.4-2.5c0.4-4,0.4-9.4,0.4-27.4c0-5.8-0.1-26.8-0.6-29.2
		c-0.3-1.6-0.4-2.4-2.2-2.8c-1.3-0.3-3.4-0.5-6.3-0.7c-0.5-0.3-0.3-1.2,0-1.3c5.8-0.4,12.1-1.8,17.8-3.7c0.3,0.1,0.6,0.4,0.6,0.5
		c-0.9,1.9-1.3,4.8-1.3,11.4c-0.1,5.2,0,17,0,25.2c0,16.1,0.1,23.4,0.4,25.8c0.3,3,0.7,4.1,3,4.8c1.6,0.5,3.9,0.8,6.4,0.9
		c0.1,0.3,0,1.3-0.3,1.5c-1.9,0-7.3-0.3-12.8-0.3c-5.1,0-12.1,0.3-13.9,0.3C1611,587.8,1611,587,1611.2,586.7z"/>
	<path class="st1" d="M1667.5,588.2c-2.8,0-9-0.3-13.1-0.3c-5.7,0-10.9,0.3-13,0.3c-0.3-0.2-0.3-1.3,0-1.5c2.1-0.2,4.5-0.4,6.1-0.9
		c1.6-0.5,2.4-1.1,2.7-4.1c0.3-2.5,0.3-10.8,0.3-16.6c0-4-0.1-7.3-0.1-9c0-0.6,0-1-0.7-1.8c-1.5-1.1-3.7-1.5-6.4-1.9
		c-0.3-0.2-0.1-1.3,0-1.5c4.6-0.3,10.8-1.1,15.8-2.8c-0.1,2.8-0.3,10.8-0.3,17.1c0,5.6,0,12.5,0.1,17.5c0,1.9,1,2.8,3.1,3.3
		c1.8,0.4,2.7,0.5,6,0.8C1667.9,586.9,1667.8,588.1,1667.5,588.2z M1656.1,537.2c-0.6,0.2-3.7,0.5-4.6,0.2c-1.6-0.5-2.8-1.8-2.8-3.4
		c0-0.7,0.1-1.4,0.7-1.9c0.9-0.7,3.1-1.4,4.9-1.4c1.6,0,3.1,0.6,3.4,0.8c0.9,0.5,1.2,1.5,1.2,2
		C1659,535.3,1657.6,536.8,1656.1,537.2z"/>
	<path class="st1" d="M1667.9,549.1c1.5,0,8.8,0.3,12.4,0.3c5.5,0,10-0.2,12.6-0.3c0.4,0.2,0.3,1.2,0.1,1.5
		c-2.7,0.3-4.8,0.6-5.8,0.9c-1,0.3-0.9,1.1-0.7,1.4c1.6,4.4,13.7,25.3,14.3,26.3c0.1,0.2,0.6,0,0.6,0c3.3-5.4,10.3-18.6,12.1-22.6
		c1.8-4,0.9-4.5-0.6-4.9c-2.2-0.6-4.6-0.8-6.9-1c-0.1-0.3,0-1.3,0.4-1.5c1.8,0,7.2,0.3,12.4,0.3c3.9,0,9.3-0.2,10.6-0.3
		c0.4,0.1,0.3,1.3,0,1.5c-1.6,0.2-3.4,0.3-5.1,0.7c-2.5,0.6-3.9,1.8-4.9,3.4c-3.6,5.3-10.2,16.8-14.9,25.2c-2.4,4.1-3.4,6.5-4.3,8.5
		c-1.5,0-3,0-3.9,0.2c-1-2.5-1.9-4.4-3.6-7.7c-3.6-7.1-9.3-16.9-12-21.5c-3.6-6.3-3.7-7.3-7.6-8.2c-1.8-0.4-3.4-0.5-5.4-0.7
		C1667.3,550.4,1667.6,549.3,1667.9,549.1z"/>
	<path class="st1" d="M1778.6,580c0.1,0.5-0.1,1.5-0.3,1.7c-7.3,5.1-15.8,7.4-22.4,7.4c-7.3,0-13.1-1.8-17-4.8
		c-5.5-4.2-7.5-10.1-7.5-15.2c0-8.3,4.6-14.3,12.5-17.8c3.7-1.7,11.4-3.2,14.8-3.2c13.6,0,17.9,9.1,19,13.7c0.1,0.3,0.4,0.6,1.9,0.7
		c0.2,0.3-0.3,1.2-0.6,1.3c-6.4,1.4-26.7,2.1-38.8,2.3c-0.6,0-0.9,0.6-0.9,1.1c0,4.2,2.2,8.9,5.5,11.6c4.6,3.9,10.5,5.4,16.9,5.4
		c5.7,0,10.8-0.8,16.4-4.3C1778.3,579.8,1778.6,579.9,1778.6,580z M1739.8,563.1c0,0.3,0.3,0.6,0.4,0.6c4.5,0.2,24.3-0.2,27.8-0.7
		c0.3-0.1,0.9-0.4,0.9-0.8c-0.9-4.8-5.5-11.5-14.9-11.5C1746.8,550.6,1740.7,554.9,1739.8,563.1z"/>
</g>
</svg>
